HIERARCHY
ROOT hip
{
  OFFSET 0 0 0
  CHANNELS 6 Xposition Yposition Zposition Zrotation Yrotation Xrotation
  JOINT abdomen
  {
    OFFSET 0 20.6881 -0.73152
    CHANNELS 3 Zrotation Xrotation Yrotation
    JOINT chest
    {
      OFFSET 0 11.7043 -0.48768
      CHANNELS 3 Zrotation Xrotation Yrotation
      JOINT neck
      {
        OFFSET 0 22.1894 -2.19456
        CHANNELS 3 Zrotation Xrotation Yrotation
        JOINT head
        {
          OFFSET -0.24384 7.07133 1.2192
          CHANNELS 3 Zrotation Xrotation Yrotation
          JOINT leftEye
          {
            OFFSET 4.14528 8.04674 8.04672
            CHANNELS 3 Zrotation Xrotation Yrotation
            End Site
            {
              OFFSET 1 0 0
            }
          }
          JOINT rightEye
          {
            OFFSET -3.6576 8.04674 8.04672
            CHANNELS 3 Zrotation Xrotation Yrotation
            End Site
            {
              OFFSET 1 0 0
            }
          }
        }
      }
      JOINT rCollar
      {
        OFFSET -2.68224 19.2634 -4.8768
        CHANNELS 3 Zrotation Xrotation Yrotation
        JOINT rShldr
        {
          OFFSET -8.77824 -1.95073 1.46304
          CHANNELS 3 Zrotation Xrotation Yrotation
          JOINT rForeArm
          {
            OFFSET -28.1742 -1.7115 0.48768
            CHANNELS 3 Zrotation Xrotation Yrotation
            JOINT rHand
            {
              OFFSET -22.5879 0.773209 7.07136
              CHANNELS 3 Zrotation Xrotation Yrotation
              JOINT rThumb1
              {
                OFFSET -1.2192 -0.487915 3.41376
                CHANNELS 3 Zrotation Xrotation Yrotation
                JOINT rThumb2
                {
                  OFFSET -3.37035 -0.52449 3.41376
                  CHANNELS 3 Zrotation Xrotation Yrotation
                  End Site
                  {
                    OFFSET -1.78271 -1.18214 1.43049
                  }
                }
              }
              JOINT rIndex1
              {
                OFFSET -7.75947 0.938293 5.60832
                CHANNELS 3 Zrotation Xrotation Yrotation
                JOINT rIndex2
                {
                  OFFSET -2.54057 -0.884171 1.56538
                  CHANNELS 3 Zrotation Xrotation Yrotation
                  End Site
                  {
                    OFFSET -1.62519 -0.234802 1.16502
                  }
                }
              }
              JOINT rMid1
              {
                OFFSET -8.24714 1.18213 3.41376
                CHANNELS 3 Zrotation Xrotation Yrotation
                JOINT rMid2
                {
                  OFFSET -3.10165 -0.590103 1.0647
                  CHANNELS 3 Zrotation Xrotation Yrotation
                  End Site
                  {
                    OFFSET -2.48547 -0.328903 0.83742
                  }
                }
              }
              JOINT rRing1
              {
                OFFSET -8.82822 0.546677 1.51678
                CHANNELS 3 Zrotation Xrotation Yrotation
                JOINT rRing2
                {
                  OFFSET -2.60934 -0.819778 -0.0198488
                  CHANNELS 3 Zrotation Xrotation Yrotation
                  End Site
                  {
                    OFFSET -2.33842 -0.294052 0.168128
                  }
                }
              }
              JOINT rPinky1
              {
                OFFSET -8.27202 -0.0477905 -0.4584
                CHANNELS 3 Zrotation Xrotation Yrotation
                JOINT rPinky2
                {
                  OFFSET -1.82734 -0.647385 -0.700984
                  CHANNELS 3 Zrotation Xrotation Yrotation
                  End Site
                  {
                    OFFSET -1.69225 -0.51767 -0.607171
                  }
                }
              }
            }
          }
        }
      }
      JOINT lCollar
      {
        OFFSET 2.68224 19.2634 -4.8768
        CHANNELS 3 Zrotation Xrotation Yrotation
        JOINT lShldr
        {
          OFFSET 8.77824 -1.95073 1.46304
          CHANNELS 3 Zrotation Xrotation Yrotation
          JOINT lForeArm
          {
            OFFSET 28.1742 -1.7115 0.48768
            CHANNELS 3 Zrotation Xrotation Yrotation
            JOINT lHand
            {
              OFFSET 22.5879 0.773209 7.07136
              CHANNELS 3 Zrotation Xrotation Yrotation
              JOINT lThumb1
              {
                OFFSET 1.2192 -0.487915 3.41376
                CHANNELS 3 Zrotation Xrotation Yrotation
                JOINT lThumb2
                {
                  OFFSET 3.37035 -0.52449 3.41376
                  CHANNELS 3 Zrotation Xrotation Yrotation
                  End Site
                  {
                    OFFSET 1.78271 -1.18214 1.43049
                  }
                }
              }
              JOINT lIndex1
              {
                OFFSET 7.75947 0.938293 5.60832
                CHANNELS 3 Zrotation Xrotation Yrotation
                JOINT lIndex2
                {
                  OFFSET 2.54057 -0.884171 1.56538
                  CHANNELS 3 Zrotation Xrotation Yrotation
                  End Site
                  {
                    OFFSET 1.62519 -0.234802 1.16502
                  }
                }
              }
              JOINT lMid1
              {
                OFFSET 8.24714 1.18213 3.41376
                CHANNELS 3 Zrotation Xrotation Yrotation
                JOINT lMid2
                {
                  OFFSET 3.10165 -0.590103 1.0647
                  CHANNELS 3 Zrotation Xrotation Yrotation
                  End Site
                  {
                    OFFSET 2.48547 -0.328903 0.83742
                  }
                }
              }
              JOINT lRing1
              {
                OFFSET 8.82822 0.546677 1.51678
                CHANNELS 3 Zrotation Xrotation Yrotation
                JOINT lRing2
                {
                  OFFSET 2.60934 -0.819778 -0.0198488
                  CHANNELS 3 Zrotation Xrotation Yrotation
                  End Site
                  {
                    OFFSET 2.33842 -0.294052 0.168128
                  }
                }
              }
              JOINT lPinky1
              {
                OFFSET 8.27202 -0.0477905 -0.4584
                CHANNELS 3 Zrotation Xrotation Yrotation
                JOINT lPinky2
                {
                  OFFSET 1.82734 -0.647385 -0.700984
                  CHANNELS 3 Zrotation Xrotation Yrotation
                  End Site
                  {
                    OFFSET 1.69225 -0.51767 -0.607171
                  }
                }
              }
            }
          }
        }
      }
    }
  }
  JOINT rButtock
  {
    OFFSET -8.77824 4.35084 1.2192
    CHANNELS 3 Zrotation Xrotation Yrotation
    JOINT rThigh
    {
      OFFSET 0 -1.70687 -2.19456
      CHANNELS 3 Zrotation Xrotation Yrotation
      JOINT rShin
      {
        OFFSET 0 -36.8199 0.73152
        CHANNELS 3 Zrotation Xrotation Yrotation
        JOINT rFoot
        {
          OFFSET 0.73152 -45.1104 -5.12064
          CHANNELS 3 Zrotation Xrotation Yrotation
          End Site
          {
            OFFSET -1.1221 -3.69964 12.103
          }
        }
      }
    }
  }
  JOINT lButtock
  {
    OFFSET 8.77824 4.35084 1.2192
    CHANNELS 3 Zrotation Xrotation Yrotation
    JOINT lThigh
    {
      OFFSET 0 -1.70687 -2.19456
      CHANNELS 3 Zrotation Xrotation Yrotation
      JOINT lShin
      {
        OFFSET 0 -36.8199 0.73152
        CHANNELS 3 Zrotation Xrotation Yrotation
        JOINT lFoot
        {
          OFFSET -0.73152 -45.1104 -5.12064
          CHANNELS 3 Zrotation Xrotation Yrotation
          End Site
          {
            OFFSET 1.1221 -3.69964 12.103
          }
        }
      }
    }
  }
}
MOTION
Frames:	8
Frame Time:	0.03333
0.0 0.0 0.0 0.0 0.0 0.0 0.0 0.0 0.0 0.0 0.0 0.0 0.0 0.0 0.0 0.0 0.0 0.0 0.0 0.0 0.0 0.0 0.0 0.0 0.0 0.0 0.0 0.0 0.0 0.0 0.0 0.0 0.0 0.0 0.0 0.0 0.0 0.0 0.0 0.0 0.0 0.0 0.0 0.0 0.0 0.0 0.0 0.0 0.0 0.0 0.0 0.0 0.0 0.0 0.0 0.0 0.0 0.0 0.0 0.0 0.0 0.0 0.0 0.0 0.0 0.0 0.0 0.0 0.0 0.0 0.0 0.0 0.0 0.0 0.0 0.0 0.0 0.0 0.0 0.0 0.0 0.0 0.0 0.0 0.0 0.0 0.0 0.0 0.0 0.0 0.0 0.0 0.0 0.0 0.0 0.0 0.0 0.0 0.0 0.0 0.0 0.0 0.0 0.0 0.0 0.0 0.0 0.0 0.0 0.0 0.0 0.0 0.0 0.0 0.0 0.0 0.0 0.0 0.0 0.0 0.0 0.0 0.0 0.0 0.0 0.0 0.0 0.0 0.0 0.0 0.0 0.0
-0.1334 69.089 0.4092 0.571722 -49.536553 -0.939871 -0.144892 -4.557932 180.0 0.76537 -16.2904 178.300935 13.504431 -14.492298 94.008681 38.688798 47.05584 125.842751 -3.514709 1.526277 -46.935552 22.630762 6.494786 31.661593 -80.871503 -12.961008 161.691331 17.074526 -43.768047 10.238404 169.089381 -83.036345 -37.016687 89.262056 -61.267195 70.753959 -167.731236 -2.413493 97.455808 -32.767817 -6.058846 63.671304 -118.933823 18.040548 12.234706 11.267964 66.814812 59.422603 130.33603 -10.986763 -134.176681 -3.913503 14.625368 -130.034309 153.508731 -19.487258 43.256911 -16.63684 15.674808 -158.133908 -167.022462 -45.727933 29.860328 -137.21777 64.979982 103.220158 38.816522 52.392865 -112.223198 -12.341125 16.980481 -14.622042 3.129473 45.478785 -166.656284 -165.564257 -11.03575 -142.192382 120.128825 80.255174 -81.767302 -71.363236 64.652697 -152.028932 154.582918 77.3287 14.739171 160.375869 -6.647469 32.644886 83.804279 -0.864173 20.626537 -163.877564 -38.928502 45.879867 18.764532 -0.418599 144.47102 79.708487 1.39378 76.350578 -154.588619 14.026269 -65.996842 -167.361399 -37.540262 30.506421 30.143378 -33.000644 36.41842 -10.075969 44.06532 -0.0 6.33984 -2.714608 84.506167 63.43295 -43.548692 -111.717184 -25.730399 -42.264184 -31.86684 4.194264 47.481715 174.317995 -4.596519 2.620899 -125.425007 60.282056 -49.874265 -117.592556
-0.9088 65.5146 -0.6376 -7.013212 48.16114 12.189481 2.880392 -25.300003 116.654091 1.819491 7.153105 -104.060412 25.413917 6.921217 77.956527 1.100663 13.885399 -54.998401 21.902241 -9.918004 -48.305135 44.817796 -19.330451 -44.882954 11.799792 -13.751652 -6.537858 14.257074 15.33174 14.139922 175.416129 1.852658 39.325977 172.535886 -2.441949 136.072509 83.839962 -47.67764 34.245984 -75.220557 -1.312763 -43.554242 -17.976343 -6.765608 15.344603 8.023913 32.2515 -15.934451 -24.307061 -0.694944 -9.07016 -112.197701 -2.833806 122.349079 6.359503 -28.462503 5.086645 59.622895 40.432148 -86.234932 18.217712 43.179924 15.77778 -127.969129 71.215984 168.091488 -21.990741 -86.784173 -2.934848 -96.002215 -76.467281 -78.764418 173.1541 0.153309 127.470464 1.105698 -3.427168 7.022415 118.465665 27.351736 -71.122424 6.490566 -10.826267 -22.571041 27.304948 22.002004 -4.155697 168.136415 -50.237482 -85.303338 157.554186 25.037525 -152.073401 -13.952383 -78.145993 11.327498 143.984537 3.078323 173.455395 -7.04011 0.022036 27.001575 158.396229 -82.346867 136.221054 117.664382 -29.346855 82.741079 -5.079628 -10.737375 5.497441 -16.012551 -32.771874 109.904076 44.617511 -50.520162 -107.61316 52.738444 -43.232174 -15.846919 -32.485806 21.169156 -40.542775 92.072926 -17.559408 -176.24914 67.599781 -19.981841 -175.707754 152.154779 13.623544 -78.725468
-0.3902 68.5975 -1.0261 3.101261 36.334211 6.486792 -20.110274 7.702211 -90.33012 18.769618 13.565121 97.461246 -11.294602 2.237169 -114.628137 1.144465 10.709672 111.793567 159.785414 -16.27962 77.485335 -22.659136 -7.389789 35.729682 0.854735 -10.907105 -9.134087 -142.808095 30.682217 154.004472 91.784705 -39.068781 -158.060486 -54.52641 54.073395 34.525192 175.537058 -20.515602 78.361359 -179.054062 43.688217 94.689796 16.380504 49.239602 27.113379 122.501628 47.15222 -166.9057 24.845644 -3.806554 -47.944715 19.986656 -4.577094 77.883021 25.817391 24.356294 -8.446921 -173.477339 -46.856601 163.582817 5.701746 -46.695416 -4.405494 -129.853318 4.269287 -102.993163 -4.5369 14.421119 -3.488894 128.178769 69.306824 -129.78826 -174.708109 -51.044266 138.27548 4.908784 6.494466 11.423323 172.740188 -5.065408 -79.280199 28.744577 -34.660857 -21.973914 173.026607 6.933372 -101.610884 -156.476128 22.552754 -89.213387 114.302589 53.046578 -63.424165 -13.907935 -0.529992 -52.528464 -9.723887 -0.205605 -3.47979 46.928308 39.365425 -15.784082 83.518552 47.521832 -149.878635 -34.519874 -7.808044 14.321631 -69.945368 53.754616 -46.038056 101.654644 -4.854584 -88.99997 -77.193791 -41.34106 -72.678276 -153.803358 29.160794 -143.990542 31.251112 22.721846 18.90802 -40.796856 -44.171147 -144.232639 -61.760525 -42.467482 -78.616567 81.954788 34.518573 172.136903
0.27859999999999996 69.20570000000001 0.21090000000000003 2.481451 32.453203 5.021784 -11.404789 4.468745 -94.069059 12.193893 7.854612 99.38982 -0.529825 9.298078 112.961936 -21.941721 -1.638839 -122.306182 179.540009 0.364021 -76.71374 2.713856 1.519175 58.472612 -152.213974 40.350086 152.294807 57.302441 -76.986544 55.499915 -2.408004 -56.953109 73.309225 -8.160553 -18.805583 -2.44986 -6.101017 14.092289 -13.402756 -61.505406 -53.21114 167.242335 2.389528 64.371246 -27.510321 97.517967 -18.167035 65.910223 -145.545983 38.120966 137.513576 170.781744 72.173546 139.399284 -85.458226 52.645396 88.124563 115.758681 -59.656247 43.80559 50.061791 24.529501 -74.526671 158.488421 -12.932024 147.672933 -5.495039 -36.792148 2.017703 81.605364 74.645442 -94.396854 -3.089835 -58.028011 -66.691819 10.341119 -25.688533 10.281736 1.699339 7.14031 16.175764 -26.087518 26.173184 -27.430499 145.407797 -47.663985 -143.489988 -4.686174 -41.080096 67.438116 122.333617 4.500252 -156.041398 106.191509 -45.057497 -178.008814 109.347297 4.044827 158.814552 -46.1635 27.031617 -60.792827 102.123362 -54.772514 41.431264 -63.70622 11.108625 92.300769 -135.83186 68.832179 0.0 141.695408 6.503253 4.222335 -65.342117 58.491321 -35.499514 12.279231 -26.902179 100.497384 -150.00351 42.000279 -40.784659 173.215898 25.287135 -76.699625 -66.16606 11.787451 -110.719742 91.629905 37.493377 163.307861
1.7996999999999999 68.94789999999999 1.3303 3.66666 28.317868 6.279541 -13.408875 7.115423 -0.0 6.038639 -19.866264 8.217821 -11.039422 -6.898417 -2.647139 34.133194 6.258606 -30.571549 -9.512011 6.900101 -71.855558 -1.10176 -0.715093 65.969931 -151.632838 -45.241852 -177.775052 -135.903783 80.143297 135.474568 -27.596435 26.16509 80.258601 6.12569 -29.663517 -4.186819 -157.109307 2.642591 84.745241 -91.752773 -23.10679 26.673295 -149.116347 -16.28622 124.529543 12.974958 66.146402 -4.812943 -158.457888 -10.454927 141.448967 66.499303 -47.799942 49.211568 -3.748295 -2.61361 19.129731 -104.755984 -73.083601 -88.05851 -16.060301 53.027039 57.232751 12.040948 43.392748 -14.071864 171.78894 -21.35176 -142.803271 -0.337247 15.334277 -20.478771 176.125709 13.409104 81.880771 8.11781 -0.938057 -16.461438 12.043738 47.955629 51.306703 -43.965209 -13.80219 -71.002445 34.650444 74.408686 -43.681794 124.335464 86.959229 -67.611976 -92.657745 -78.816766 -17.727212 -18.375214 23.639711 -91.972479 156.807641 -3.766696 -164.611963 104.124578 -76.767347 86.992133 6.009993 33.531534 68.814966 27.526619 -27.757629 -176.747644 43.945759 29.993025 53.894242 -90.386081 -6.769688 -180.0 -75.059931 -9.036771 -122.075895 -92.052291 -4.928733 -173.633589 -79.858839 -2.684986 -26.137348 70.109727 3.096071 91.11948 56.896885 25.959013 117.711878 105.046181 10.39625 178.509117
3.8173 67.0393 2.3550999999999997 7.794057 30.923514 7.740513 -32.43636 3.992188 1.021184 25.41039 -11.814897 9.778363 -3.010331 -14.326463 4.25787 16.77687 5.389716 -48.315152 57.405254 -22.502945 -39.935215 32.366806 12.135669 40.234334 4.218547 38.545581 -21.155884 -108.484906 56.639393 117.991922 -95.346374 -30.252077 -101.724488 64.545387 -61.479931 45.761508 91.933976 -54.116048 42.757815 157.907318 -79.866002 101.584654 -3.714145 43.163202 13.725396 130.828592 -1.087943 142.798482 -22.840989 28.129126 -23.032549 28.506392 -17.222564 45.643955 -127.380528 -0.041919 -157.228648 75.814642 -37.194823 -40.09712 172.32467 -46.068102 142.415774 159.706241 -18.495192 150.968206 80.640145 40.044649 -87.122582 169.307628 64.60571 167.900949 -87.999714 -46.027896 109.805525 123.02829 65.998814 -122.726892 175.734007 66.504606 -125.570629 131.436227 -10.4766 -92.9567 31.594291 62.232847 -38.276848 164.107133 -58.952852 -169.062171 -93.425886 -68.69257 -39.668084 157.23145 11.683695 -70.420461 94.36594 46.976418 -84.891266 -53.581915 42.215627 -10.571891 8.841431 8.076339 68.680939 31.623145 52.053873 -127.968877 -19.000532 -15.079877 20.080384 8.378926 -31.728178 15.646504 47.963362 24.058016 -98.708897 109.15995 -8.850461 -9.248242 -14.214103 5.532948 20.307706 -19.536329 -23.697038 -0.0 -0.166286 57.968274 -113.769553 -2.176432 -12.354751 123.245456
5.1338 65.53569999999999 3.6783 5.137141 41.870896 7.31613 -25.904269 0.496922 -91.023054 7.557395 23.061554 90.54322 5.275703 3.814437 166.011793 2.749906 16.683877 159.763362 160.974986 4.420099 -25.938889 70.301269 -12.889504 -18.227787 -176.001919 42.255745 -177.437256 172.493138 -44.777367 175.188859 60.928196 -44.409999 86.725687 8.192612 50.20179 -21.481781 -101.528845 61.972295 37.222624 121.586682 -49.169559 117.025234 5.895599 14.71889 1.678274 -176.275263 66.847141 78.407127 -50.356305 8.219915 -26.566206 -155.302666 -7.645518 75.083942 -68.139267 -55.606447 -99.041187 43.890346 19.397631 50.353639 37.798118 -39.847051 89.958072 -12.158894 59.285105 -64.88423 142.536326 15.51001 -134.447541 33.245457 -88.981424 56.985906 -15.583245 -18.498983 -125.323781 21.998155 12.704115 -22.109499 -18.446007 85.519193 46.335125 -10.192814 17.014062 0.103764 -42.887193 60.108259 13.098832 53.067189 72.096901 32.521837 102.940688 37.028453 -126.882488 -17.873262 -37.635557 64.607611 157.132028 -53.035396 -161.444792 -59.277008 -27.835522 -73.686587 -79.886586 22.602266 60.530143 -137.471052 49.126467 125.885643 -157.760115 49.278741 -28.348139 172.397137 12.731197 -79.126902 -51.213922 33.27211 -70.560961 -99.074608 80.799771 -166.695298 175.944425 86.548885 0.0 161.326231 60.913038 -65.725641 -73.795983 -5.532988 -141.915811 -11.120651 -18.345675 -129.386463
